<svg width="85" height="87" viewBox="0 0 85 87" fill="none" xmlns="http://www.w3.org/2000/svg">
<ellipse cx="42.061" cy="43.4305" rx="42.042" ry="42.8344" fill="url(#paint0_linear_13_80)"/>
<path d="M43.9004 52.4439H40.6072C38.2773 52.4439 36.3679 50.4449 36.3679 47.982C36.3679 47.2502 36.9635 46.6434 37.6817 46.6434C38.3999 46.6434 38.9955 47.2502 38.9955 47.982C38.9955 48.9636 39.7138 49.7667 40.6072 49.7667H43.9004C44.5836 49.7667 45.1267 49.1421 45.1267 48.3746C45.1267 47.4108 44.8639 47.2681 44.2683 47.0539L38.9955 45.1799C37.8744 44.7872 36.3679 43.9484 36.3679 41.3248C36.3679 39.0939 38.1022 37.2556 40.2218 37.2556H43.5151C45.8449 37.2556 47.7543 39.2545 47.7543 41.7174C47.7543 42.4492 47.1587 43.056 46.4405 43.056C45.7223 43.056 45.1267 42.4492 45.1267 41.7174C45.1267 40.7359 44.4085 39.9327 43.5151 39.9327H40.2218C39.5386 39.9327 38.9955 40.5574 38.9955 41.3248C38.9955 42.2885 39.2583 42.4313 39.8539 42.6455L45.1267 44.5195C46.2478 44.9122 47.7543 45.751 47.7543 48.3746C47.7543 50.6234 46.0201 52.4439 43.9004 52.4439Z" fill="#00AC4F"/>
<path d="M42.0611 54.2283C41.3429 54.2283 40.7473 53.6215 40.7473 52.8897V36.8268C40.7473 36.095 41.3429 35.4882 42.0611 35.4882C42.7793 35.4882 43.3749 36.095 43.3749 36.8268V52.8897C43.3749 53.6215 42.7793 54.2283 42.0611 54.2283Z" fill="#00AC4F"/>
<path d="M42.061 64.0445C31.6732 64.0445 23.2297 55.4419 23.2297 44.8583C23.2297 34.2746 31.6732 25.672 42.061 25.672C42.7793 25.672 43.3749 26.2788 43.3749 27.0106C43.3749 27.7423 42.7793 28.3491 42.061 28.3491C33.1271 28.3491 25.8574 35.7559 25.8574 44.8583C25.8574 53.9606 33.1271 61.3674 42.061 61.3674C50.995 61.3674 58.2647 53.9606 58.2647 44.8583C58.2647 44.1265 58.8603 43.5197 59.5785 43.5197C60.2968 43.5197 60.8924 44.1265 60.8924 44.8583C60.8924 55.4419 52.4489 64.0445 42.061 64.0445Z" fill="#00AC4F"/>
<path d="M57.8267 37.273H50.8197C50.1015 37.273 49.5059 36.6662 49.5059 35.9344V28.7953C49.5059 28.0636 50.1015 27.4568 50.8197 27.4568C51.5379 27.4568 52.1335 28.0636 52.1335 28.7953V34.5958H57.8267C58.5449 34.5958 59.1405 35.2027 59.1405 35.9344C59.1405 36.6662 58.5449 37.273 57.8267 37.273Z" fill="#00AC4F"/>
<path d="M50.8187 37.2738C50.4859 37.2738 50.153 37.1488 49.8903 36.8811C49.3823 36.3635 49.3823 35.5068 49.8903 34.9893L58.649 26.0654C59.157 25.5478 59.9979 25.5478 60.5059 26.0654C61.0139 26.583 61.0139 27.4397 60.5059 27.9573L51.7471 36.8811C51.4844 37.1488 51.1515 37.2738 50.8187 37.2738Z" fill="#00AC4F"/>
<defs>
<linearGradient id="paint0_linear_13_80" x1="74.6436" y1="0.596041" x2="40.9884" y2="85.8414" gradientUnits="userSpaceOnUse">
<stop stop-color="#D3FFE7"/>
<stop offset="1" stop-color="#EFFFF6"/>
</linearGradient>
</defs>
</svg>
