<svg width="85" height="87" viewBox="0 0 85 87" fill="none" xmlns="http://www.w3.org/2000/svg">
<ellipse cx="42.8191" cy="43.5099" rx="42.042" ry="42.8344" fill="url(#paint0_linear_13_112)"/>
<path d="M50.7019 37.4949C49.9837 37.4949 49.3881 36.8881 49.3881 36.1563V33.6934C49.3881 31.8194 48.5998 29.9989 47.2334 28.7317C45.8495 27.4467 44.0627 26.8577 42.1709 27.0362C39.0177 27.3396 36.2499 30.6236 36.2499 34.0503V35.7815C36.2499 36.5133 35.6543 37.1201 34.9361 37.1201C34.2179 37.1201 33.6223 36.5133 33.6223 35.7815V34.0325C33.6223 29.2314 37.4236 24.8052 41.9256 24.359C44.5532 24.1092 47.0758 24.948 49.0027 26.7506C50.9121 28.5175 52.0157 31.0519 52.0157 33.6934V36.1563C52.0157 36.8881 51.4201 37.4949 50.7019 37.4949Z" fill="#DA001A"/>
<path d="M48.074 62.6962H37.5636C29.4705 62.6962 27.964 58.8589 27.5786 55.1288L26.2648 44.438C26.0721 42.5105 26.002 39.7441 27.8413 37.6737C29.4179 35.889 32.028 35.0323 35.8118 35.0323H49.8258C53.6271 35.0323 56.2372 35.9068 57.7962 37.6737C59.6181 39.7441 59.5655 42.5105 59.3728 44.4023L58.059 55.1288C57.6736 58.8589 56.1671 62.6962 48.074 62.6962ZM35.8118 37.7094C32.8513 37.7094 30.8193 38.2984 29.7858 39.4764C28.9274 40.4401 28.6471 41.9215 28.8749 44.1346L30.1887 54.8254C30.4865 57.681 31.2573 60.0369 37.5636 60.0369H48.074C54.3803 60.0369 55.1511 57.6988 55.4489 54.8611L56.7627 44.1346C56.9904 41.9572 56.7101 40.4758 55.8518 39.4942C54.8183 38.2984 52.7862 37.7094 49.8258 37.7094H35.8118Z" fill="#DA001A"/>
<path d="M48.8105 45.5622C47.8295 45.5622 47.0413 44.7591 47.0413 43.7775C47.0413 42.7959 47.8295 41.9927 48.793 41.9927C49.7565 41.9927 50.5448 42.7959 50.5448 43.7775C50.5448 44.7591 49.774 45.5622 48.8105 45.5622Z" fill="#DA001A"/>
<path d="M36.5481 45.5622C35.5671 45.5622 34.7788 44.7591 34.7788 43.7775C34.7788 42.7959 35.5671 41.9927 36.5306 41.9927C37.494 41.9927 38.2823 42.7959 38.2823 43.7775C38.2823 44.7591 37.5115 45.5622 36.5481 45.5622Z" fill="#DA001A"/>
<defs>
<linearGradient id="paint0_linear_13_112" x1="75.4017" y1="0.675509" x2="41.7464" y2="85.9209" gradientUnits="userSpaceOnUse">
<stop stop-color="#FFA3CF"/>
<stop offset="1" stop-color="#FFD5F3"/>
</linearGradient>
</defs>
</svg>
