<svg width="85" height="87" viewBox="0 0 85 87" fill="none" xmlns="http://www.w3.org/2000/svg">
<ellipse cx="42.312" cy="43.4702" rx="42.042" ry="42.8344" fill="url(#paint0_linear_13_63)"/>
<path d="M44.1514 52.4836H40.8581C38.5283 52.4836 36.6189 50.4847 36.6189 48.0217C36.6189 47.2899 37.2145 46.6831 37.9327 46.6831C38.6509 46.6831 39.2465 47.2899 39.2465 48.0217C39.2465 49.0033 39.9647 49.8065 40.8581 49.8065H44.1514C44.8346 49.8065 45.3776 49.1818 45.3776 48.4143C45.3776 47.4506 45.1149 47.3078 44.5193 47.0936L39.2465 45.2196C38.1254 44.827 36.6189 43.9881 36.6189 41.3645C36.6189 39.1336 38.3531 37.2953 40.4727 37.2953H43.766C46.0959 37.2953 48.0053 39.2942 48.0053 41.7572C48.0053 42.4889 47.4097 43.0957 46.6915 43.0957C45.9732 43.0957 45.3776 42.4889 45.3776 41.7572C45.3776 40.7756 44.6594 39.9724 43.766 39.9724H40.4727C39.7896 39.9724 39.2465 40.5971 39.2465 41.3645C39.2465 42.3283 39.5093 42.4711 40.1049 42.6852L45.3776 44.5592C46.4988 44.9519 48.0053 45.7907 48.0053 48.4143C48.0053 50.6631 46.271 52.4836 44.1514 52.4836Z" fill="#00AC4F"/>
<path d="M42.3121 54.268C41.5939 54.268 40.9983 53.6612 40.9983 52.9294V36.8665C40.9983 36.1348 41.5939 35.528 42.3121 35.528C43.0303 35.528 43.6259 36.1348 43.6259 36.8665V52.9294C43.6259 53.6612 43.0303 54.268 42.3121 54.268Z" fill="#00AC4F"/>
<path d="M42.312 64.0842C31.9241 64.0842 23.4807 55.4817 23.4807 44.898C23.4807 34.3143 31.9241 25.7117 42.312 25.7117C43.0302 25.7117 43.6258 26.3186 43.6258 27.0503C43.6258 27.7821 43.0302 28.3889 42.312 28.3889C33.3781 28.3889 26.1083 35.7957 26.1083 44.898C26.1083 54.0003 33.3781 61.4071 42.312 61.4071C51.2459 61.4071 58.5157 54.0003 58.5157 44.898C58.5157 44.1662 59.1113 43.5594 59.8295 43.5594C60.5477 43.5594 61.1433 44.1662 61.1433 44.898C61.1433 55.4817 52.6999 64.0842 42.312 64.0842Z" fill="#00AC4F"/>
<path d="M58.0777 37.3127H51.0706C50.3524 37.3127 49.7568 36.7059 49.7568 35.9742V28.8351C49.7568 28.1033 50.3524 27.4965 51.0706 27.4965C51.7889 27.4965 52.3845 28.1033 52.3845 28.8351V34.6356H58.0777C58.7959 34.6356 59.3915 35.2424 59.3915 35.9742C59.3915 36.7059 58.7959 37.3127 58.0777 37.3127Z" fill="#00AC4F"/>
<path d="M51.0697 37.3135C50.7369 37.3135 50.404 37.1886 50.1413 36.9208C49.6333 36.4033 49.6333 35.5466 50.1413 35.029L58.9 26.1052C59.408 25.5876 60.2489 25.5876 60.7569 26.1052C61.2649 26.6227 61.2649 27.4794 60.7569 27.997L51.9981 36.9208C51.7354 37.1886 51.4025 37.3135 51.0697 37.3135Z" fill="#00AC4F"/>
<defs>
<linearGradient id="paint0_linear_13_63" x1="74.8946" y1="0.635775" x2="41.2394" y2="85.8812" gradientUnits="userSpaceOnUse">
<stop stop-color="#D3FFE7"/>
<stop offset="1" stop-color="#EFFFF6"/>
</linearGradient>
</defs>
</svg>
