<svg width="85" height="87" viewBox="0 0 85 87" fill="none" xmlns="http://www.w3.org/2000/svg">
<ellipse cx="42.5681" cy="43.4901" rx="42.042" ry="42.8344" fill="url(#paint0_linear_13_96)"/>
<path d="M34.1067 63.6955C29.9376 63.6955 26.5217 60.6078 26.5217 56.8063V53.1653C26.5217 52.4336 27.1173 51.8268 27.8355 51.8268C28.5538 51.8268 29.1494 52.4336 29.1494 53.1653C29.1494 55.3963 31.2689 57.074 34.1067 57.074C36.9446 57.074 39.0642 55.3963 39.0642 53.1653C39.0642 52.4336 39.6598 51.8268 40.378 51.8268C41.0962 51.8268 41.6918 52.4336 41.6918 53.1653V56.8063C41.6918 60.6078 38.2934 63.6955 34.1067 63.6955ZM29.6047 58.5553C30.3755 60.0189 32.1097 61.0183 34.1067 61.0183C36.1037 61.0183 37.838 60.001 38.6088 58.5553C37.365 59.3228 35.8235 59.769 34.1067 59.769C32.39 59.769 30.8485 59.3228 29.6047 58.5553Z" fill="#0F5FC2"/>
<path d="M34.1067 54.8605C31.2339 54.8605 28.6588 53.5219 27.3801 51.3981C26.8195 50.47 26.5217 49.3813 26.5217 48.2747C26.5217 46.4007 27.3275 44.6516 28.799 43.3488C31.6368 40.8144 36.5242 40.8145 39.3795 43.3311C40.851 44.6518 41.6743 46.4007 41.6743 48.2747C41.6743 49.3813 41.3765 50.47 40.8159 51.3981C39.5547 53.5219 36.9796 54.8605 34.1067 54.8605ZM34.1067 44.0629C32.7404 44.0629 31.4791 44.5267 30.5332 45.3656C29.6398 46.1509 29.1494 47.186 29.1494 48.2747C29.1494 48.8994 29.3069 49.4707 29.6223 50.0061C30.4281 51.3626 32.1448 52.2014 34.1067 52.2014C36.0687 52.2014 37.7854 51.3626 38.5737 50.024C38.889 49.5064 39.0467 48.9174 39.0467 48.2928C39.0467 47.204 38.5562 46.1687 37.6628 45.3656C36.7344 44.5267 35.4731 44.0629 34.1067 44.0629Z" fill="#0F5FC2"/>
<path d="M34.1067 59.7697C29.7799 59.7697 26.5217 56.9319 26.5217 53.1839V48.2758C26.5217 44.4742 29.9201 41.3866 34.1067 41.3866C36.0862 41.3866 37.9781 42.0826 39.397 43.332C40.8685 44.6527 41.6918 46.4018 41.6918 48.2758V53.1839C41.6918 56.9319 38.4336 59.7697 34.1067 59.7697ZM34.1067 44.0637C31.374 44.0637 29.1494 45.9556 29.1494 48.2758V53.1839C29.1494 55.4149 31.2689 57.0925 34.1067 57.0925C36.9446 57.0925 39.0642 55.4149 39.0642 53.1839V48.2758C39.0642 47.1871 38.5738 46.1519 37.6804 45.3488C36.7344 44.5278 35.4731 44.0637 34.1067 44.0637Z" fill="#0F5FC2"/>
<path d="M54.9002 49.5076C52.255 49.5076 50.0128 47.5087 49.8026 44.9386C49.6624 43.4573 50.188 42.0116 51.239 40.9586C52.1149 40.0305 53.3586 39.5129 54.6724 39.5129H58.3336C60.0678 39.5665 61.3992 40.9586 61.3992 42.672V46.3486C61.3992 48.062 60.0678 49.4541 58.3861 49.5076H54.9002ZM58.281 42.1901H54.69C54.0768 42.1901 53.5163 42.4221 53.1134 42.8505C52.6054 43.3502 52.3601 44.0284 52.4302 44.7066C52.5178 45.8846 53.6389 46.8305 54.9002 46.8305H58.3336C58.5613 46.8305 58.7715 46.6163 58.7715 46.3486V42.672C58.7715 42.4043 58.5613 42.2079 58.281 42.1901Z" fill="#0F5FC2"/>
<path d="M49.5755 61.019H45.1961C44.4779 61.019 43.8823 60.4122 43.8823 59.6805C43.8823 58.9487 44.4779 58.3419 45.1961 58.3419H49.5755C54.095 58.3419 57.0204 55.3613 57.0204 50.7566V49.5073H54.9008C52.2557 49.5073 50.0134 47.5083 49.8032 44.9383C49.6631 43.4569 50.1888 42.0113 51.2398 40.9582C52.1157 40.0302 53.3593 39.5126 54.6731 39.5126H57.0029V38.2632C57.0029 34.0869 54.6032 31.2134 50.7143 30.7493C50.2939 30.6779 49.9259 30.678 49.558 30.678H33.7923C33.3719 30.678 32.9689 30.7137 32.566 30.7672C28.7122 31.2669 26.3474 34.1226 26.3474 38.2632V41.8328C26.3474 42.5645 25.7518 43.1714 25.0335 43.1714C24.3153 43.1714 23.7197 42.5645 23.7197 41.8328V38.2632C23.7197 32.7662 27.0481 28.7861 32.2158 28.1258C32.6888 28.0544 33.2317 28.0008 33.7923 28.0008H49.558C49.9784 28.0008 50.5215 28.0187 51.082 28.1079C56.2497 28.7147 59.6306 32.7126 59.6306 38.2632V40.8512C59.6306 41.5829 59.035 42.1897 58.3167 42.1897H54.6731C54.06 42.1897 53.4996 42.4218 53.0967 42.8501C52.5887 43.3498 52.3433 44.028 52.4133 44.7063C52.5009 45.8842 53.6222 46.8301 54.8835 46.8301H58.3343C59.0525 46.8301 59.6481 47.437 59.6481 48.1687V50.7566C59.6481 56.8962 55.6015 61.019 49.5755 61.019Z" fill="#0F5FC2"/>
<defs>
<linearGradient id="paint0_linear_13_96" x1="75.1507" y1="0.655642" x2="41.4955" y2="85.901" gradientUnits="userSpaceOnUse">
<stop stop-color="#CAF1FF"/>
<stop offset="1" stop-color="#CDF4FF"/>
</linearGradient>
</defs>
</svg>
